<?xml version="1.0" encoding="UTF-8"?>
<svg width="24px" height="24px" viewBox="0 0 24 24" version="1.1" xmlns="http://www.w3.org/2000/svg" xmlns:xlink="http://www.w3.org/1999/xlink">
    <!-- Generator: sketchtool 49.3 (51167) - http://www.bohemiancoding.com/sketch -->
    <title>28125B30-6C2C-4F77-BA73-DD5F8971FC03@3x</title>
    <desc>Created with sketchtool.</desc>
    <defs></defs>
    <g id="Page-1" stroke="none" stroke-width="1" fill="none" fill-rule="evenodd">
        <g id="Icons" transform="translate(-501.000000, -1286.000000)" fill="#AAAAAA" fill-rule="nonzero">
            <g id="soc" transform="translate(257.000000, 1286.000000)">
                <g id="ic_inst_e" transform="translate(244.000000, 0.000000)">
                    <path d="M19.39872,0.391058824 L4.8,0.391058824 C2.26416,0.391058824 0.20112,2.41317647 0.20112,4.89929412 L0.20112,9.66164706 L0.20112,19.2122353 C0.20112,21.6983529 2.26416,23.7204706 4.8,23.7204706 L19.3992,23.7204706 C21.93504,23.7204706 23.9976,21.6983529 23.9976,19.2122353 L23.9976,9.66117647 L23.9976,4.89882353 C23.99712,2.41270588 21.93456,0.391058824 19.39872,0.391058824 Z M20.71776,3.07952941 L21.24384,3.07764706 L21.24384,3.59105882 L21.24384,7.032 L17.22384,7.04470588 L17.20992,3.09082353 L20.71776,3.07952941 Z M8.70288,9.66117647 C9.46512,8.62729412 10.7016,7.94917647 12.09936,7.94917647 C13.49712,7.94917647 14.7336,8.62729412 15.49488,9.66117647 C15.99072,10.336 16.28784,11.1614118 16.28784,12.0555294 C16.28784,14.3195294 14.4072,16.1614118 12.09888,16.1614118 C9.78912,16.1614118 7.9104,14.3195294 7.9104,12.0555294 C7.91088,11.1614118 8.20704,10.336 8.70288,9.66117647 Z M21.67872,19.2117647 C21.67872,20.4451765 20.65584,21.4470588 19.39872,21.4470588 L4.8,21.4470588 C3.5424,21.4470588 2.51952,20.4451765 2.51952,19.2117647 L2.51952,9.66117647 L6.07152,9.66117647 C5.7648,10.4009412 5.59248,11.2089412 5.59248,12.0555294 C5.59248,15.5722353 8.51088,18.4352941 12.09936,18.4352941 C15.68736,18.4352941 18.60576,15.5722353 18.60576,12.0555294 C18.60576,11.2089412 18.43248,10.4009412 18.12576,9.66117647 L21.67872,9.66117647 L21.67872,19.2117647 Z" id="Shape"></path>
                </g>
            </g>
        </g>
    </g>
</svg>