<?xml version="1.0" encoding="UTF-8"?>
<svg width="24px" height="24px" viewBox="0 0 24 24" version="1.1" xmlns="http://www.w3.org/2000/svg" xmlns:xlink="http://www.w3.org/1999/xlink">
    <!-- Generator: Sketch 52.4 (67378) - http://www.bohemiancoding.com/sketch -->
    <title>ic_paypal</title>
    <desc>Created with Sketch.</desc>
    <g id="Page-1" stroke="none" stroke-width="1" fill="none" fill-rule="evenodd">
        <g id="ic_paypal">
            <polygon id="Path" points="0 0 24 0 24 24 0 24"></polygon>
            <path d="M18.6106031,7.35483871 C19.181818,7.95368069 19.5162626,8.76439287 19.516129,9.69470693 L19.516129,10.8595073 C19.516129,12.8969021 18.619021,14.0660037 17.8664872,14.687878 C17.0287054,15.380237 15.9143354,15.7773376 14.8089177,15.7773376 L12.6926835,15.7773376 C12.3448771,15.7773376 12.160485,15.7992599 12.0988873,16.2694813 C12.097952,16.2772513 12.0967494,16.2850212 12.0954132,16.2926524 L11.4189078,20.1648679 C11.3344615,20.6486868 10.929734,21 10.4564608,21 L8.59116037,21 C8.30588697,21 8.03544513,20.8711019 7.84944955,20.6460505 C7.66305311,20.4207217 7.58101198,20.1231044 7.62417041,19.8292334 L7.67735019,19.4683465 L7.82432946,19.4683465 C8.59289739,19.4683465 9.25029555,18.8979481 9.38765435,18.112072 L10.1575584,13.7052555 C10.1602308,13.6892993 10.1627695,13.6733432 10.1647738,13.6572482 C10.17239,13.5999447 10.1816096,13.5590137 10.1896266,13.5312639 C10.2488192,13.5244651 10.3319293,13.5244651 10.3693422,13.5244651 L12.7779315,13.5244651 C14.1414982,13.5244651 15.5177586,13.0334314 16.5538288,12.1770707 C17.492091,11.4016009 18.6106031,9.94917313 18.6106031,7.43364831 L18.6106031,7.35483871 Z M8.20197904,17.9384386 C8.15577031,18.1982458 7.93415703,18.3870968 7.67549593,18.3870968 L5.53521003,18.3870968 C5.20730321,18.3870968 4.95659056,18.0888605 5.00630198,17.7579596 L6.67439663,6.64238012 C7.21260033,2.98037377 7.42653462,3.03513506 10.2414949,3 L13.9167727,3 C15.8786903,3 17.483871,4.2551176 17.483871,6.25850217 L17.483871,7.56961627 C17.483871,11.2301129 14.6318629,12.5076016 12.6699454,12.5076016 L10.2414949,12.5076016 C9.84420761,12.5076016 9.11847461,12.5283258 8.97823177,13.5793582 L8.20197904,17.9384386 Z" id="Combined-Shape" fill="#695FFC"></path>
        </g>
        <g id="paypal" transform="translate(0.000000, 22.000000)"></g>
    </g>
</svg>