<?xml version="1.0" encoding="UTF-8"?>
<svg width="24px" height="24px" viewBox="0 0 24 24" version="1.1" xmlns="http://www.w3.org/2000/svg" xmlns:xlink="http://www.w3.org/1999/xlink">
    <!-- Generator: sketchtool 50.2 (55047) - http://www.bohemiancoding.com/sketch -->
    <title>FEC7F13E-5DEF-4DA3-BB59-7C3FA5BA1DF8</title>
    <desc>Created with sketchtool.</desc>
    <defs></defs>
    <g id="Page-1" stroke="none" stroke-width="1" fill="none" fill-rule="evenodd">
        <g id="Icons" transform="translate(-193.000000, -589.000000)">
            <g id="ic_search" transform="translate(193.000000, 589.000000)">
                <rect id="Rectangle" x="0" y="0" width="24" height="24"></rect>
                <path d="M9.78488546,15.0575533 C12.6968995,15.0575533 15.0575533,12.6968995 15.0575533,9.78488546 C15.0575533,6.8728714 12.6968995,4.51221758 9.78488546,4.51221758 C6.8728714,4.51221758 4.51221758,6.8728714 4.51221758,9.78488546 C4.51221758,12.6968995 6.8728714,15.0575533 9.78488546,15.0575533 Z M15.6970063,14.2056706 L21.6031559,20.1118202 L20.1118202,21.6031559 L14.2056706,15.6970063 C12.9733632,16.6199466 11.4429656,17.1666205 9.78488546,17.1666205 C5.70806578,17.1666205 2.40315043,13.8617052 2.40315043,9.78488546 C2.40315043,5.70806578 5.70806578,2.40315043 9.78488546,2.40315043 C13.8617052,2.40315043 17.1666205,5.70806578 17.1666205,9.78488546 C17.1666205,11.4429656 16.6199466,12.9733632 15.6970063,14.2056706 Z" id="Combined-Shape" fill="#000000"></path>
            </g>
        </g>
    </g>
</svg>