<?xml version="1.0" encoding="UTF-8"?>
<svg width="46px" height="20px" viewBox="0 0 46 20" version="1.1" xmlns="http://www.w3.org/2000/svg" xmlns:xlink="http://www.w3.org/1999/xlink">
    <!-- Generator: sketchtool 49.3 (51167) - http://www.bohemiancoding.com/sketch -->
    <title>708D9F46-F7BD-44C0-80D5-ED2A22F655AB@3x</title>
    <desc>Created with sketchtool.</desc>
    <defs></defs>
    <g id="Page-1" stroke="none" stroke-width="1" fill="none" fill-rule="evenodd">
        <g id="Icons" transform="translate(-257.000000, -1288.000000)" fill="#FF7A00" fill-rule="nonzero">
            <g id="soc" transform="translate(257.000000, 1286.000000)">
                <g id="ic_soundcloud_e" transform="translate(0.000000, 2.000000)">
                    <path d="M1.28510638,17.0182766 C1.27131915,17.1216809 1.19721277,17.1923404 1.10644681,17.1923404 C1.01338298,17.1923404 0.938702129,17.1205319 0.926638298,17.0171276 L0.59919149,14.571617 L0.926638298,12.0830213 C0.938702129,11.9790425 1.01280851,11.907234 1.10644681,11.907234 C1.1966383,11.907234 1.27074468,11.9790425 1.28510638,12.0824468 L1.67344681,14.571617 L1.28510638,17.0182766 Z M2.94934043,18.5072979 C2.93497871,18.6141489 2.858,18.6882553 2.76378722,18.6882553 C2.66842553,18.6882553 2.58914894,18.6124255 2.5770851,18.5072979 L2.13646808,14.572766 L2.5770851,10.549766 C2.58914894,10.4440638 2.66842553,10.369383 2.76378722,10.369383 C2.858,10.369383 2.93497871,10.4434894 2.94934043,10.549766 L3.45085106,14.572766 L2.94934043,18.5072979 Z M4.74742553,19.1725319 C4.73363831,19.3006383 4.63942553,19.3925532 4.52338298,19.3925532 C4.40504255,19.3925532 4.31025533,19.3006383 4.29819149,19.171383 L3.87997871,14.572766 L4.29819149,9.79893616 C4.31025533,9.67140427 4.40504255,9.5789149 4.52338298,9.5789149 C4.63885106,9.5789149 4.73306384,9.67140427 4.74742553,9.79893616 L5.22193616,14.572766 L4.74742553,19.1725319 Z M6.56044682,19.3184468 C6.54838298,19.4655106 6.43463831,19.576383 6.29848937,19.576383 C6.15889361,19.576383 6.04572341,19.4655106 6.03480851,19.3184468 L5.63957447,14.5733404 L6.03480851,9.66795745 C6.04572341,9.52089361 6.15889361,9.41002129 6.29848937,9.41002129 C6.43463831,9.41002129 6.54838298,9.52089361 6.56044682,9.66738298 L7.00910639,14.5733404 L6.56044682,19.3184468 Z M8.38725533,19.3580851 C8.37634043,19.5264043 8.24651063,19.6550851 8.08738298,19.6550851 C7.92595745,19.6550851 7.79612765,19.5264043 7.78636169,19.3580851 L7.41295745,14.5739149 L7.78636169,10.0241276 C7.79670212,9.85465957 7.92595745,9.72712765 8.08738298,9.72712765 C8.24651063,9.72712765 8.3769149,9.85465957 8.38725533,10.0224043 L8.81063831,14.5739149 L8.38725533,19.3580851 Z M10.2284255,19.3598085 L10.2284255,19.3586596 C10.2180851,19.5465106 10.0692979,19.6941489 9.89006384,19.6941489 C9.70853192,19.6941489 9.56031914,19.5465106 9.55112765,19.3598085 L9.20070212,14.5756383 C9.20070212,14.5756383 9.55112765,7.17361702 9.55112765,7.17304255 C9.56031914,6.98461702 9.70795745,6.83755318 9.89006384,6.83755318 C10.0692979,6.83755318 10.2180851,6.98519149 10.2284255,7.17246808 L10.624234,14.5756383 L10.2284255,19.3598085 Z M12.0558085,19.3563617 L12.0558085,19.3540638 C12.046617,19.5637447 11.8805957,19.7274681 11.6789575,19.7274681 C11.4755957,19.7274681 11.3107234,19.5637447 11.3021064,19.3557872 L10.9746596,14.6014894 C10.9746596,14.6014894 11.3009575,5.50651063 11.3009575,5.50593616 C11.3112979,5.29625533 11.4761702,5.13195745 11.6789575,5.13195745 C11.8811702,5.13195745 12.0471915,5.29625533 12.0558085,5.50593616 L12.4263404,14.6014894 L12.0558085,19.3563617 Z M13.9544255,19.2839787 L13.9544255,19.2811064 C13.945234,19.5120425 13.7625532,19.693 13.5390851,19.693 C13.3133191,19.693 13.1317872,19.512617 13.1225957,19.2828298 L12.8187021,14.5779362 C12.8187021,14.5779362 13.1225957,4.72351063 13.1225957,4.72293616 C13.1317872,4.492 13.3133191,4.31046808 13.5390851,4.31046808 C13.7625532,4.31046808 13.945234,4.49142553 13.9544255,4.72293616 L14.2991064,14.5779362 L13.9544255,19.2839787 Z M15.8381064,19.2518085 C15.8312128,19.5034255 15.6318724,19.701617 15.386,19.701617 C15.1378298,19.701617 14.9384894,19.5034255 14.9315957,19.2529574 L14.6489575,14.5773617 L14.9315957,4.39089361 C14.9384894,4.13812765 15.1378298,3.93936169 15.386,3.93936169 C15.6318724,3.93936169 15.8312128,4.13755318 15.8381064,4.39089361 L16.1569362,14.5779362 L15.8381064,19.2518085 Z M17.7378724,19.2115957 L17.7378724,19.2081489 C17.7309787,19.4821702 17.5144043,19.6981702 17.2467021,19.6981702 C16.9772766,19.6981702 16.7607021,19.4821702 16.7555319,19.2104468 L16.4952979,14.5790851 L16.7555319,4.65285106 C16.7612766,4.37825533 16.9778511,4.16340427 17.2467021,4.16340427 C17.5149787,4.16340427 17.7315532,4.37768086 17.7378724,4.65227659 L18.0308511,14.580234 L17.7378724,19.2115957 Z M19.652,19.1822979 L19.652,19.1777021 C19.6462553,19.4747021 19.4130213,19.7062128 19.1223404,19.7062128 C18.8305106,19.7062128 18.5972766,19.4747021 18.590383,19.1811489 L18.3548511,14.5785106 L18.590383,5.01534043 C18.5972766,4.7189149 18.8305106,4.4868298 19.1223404,4.4868298 C19.4130213,4.4868298 19.6462553,4.7189149 19.652,5.01419149 L19.9179787,14.580234 L19.652,19.1822979 Z M21.6040426,18.6980213 L21.5804894,19.1501276 C21.5770426,19.3058085 21.5121277,19.4477021 21.4087234,19.5499574 C21.3064681,19.6522128 21.1662979,19.7165532 21.011766,19.7165532 C20.8377021,19.7165532 20.6820213,19.6355532 20.5763191,19.5114681 C20.498766,19.4184043 20.4505106,19.3006383 20.4441915,19.1725319 C20.4441915,19.1662128 20.4430426,19.1604681 20.4430426,19.1535745 C20.4430426,19.1535745 20.228766,14.5848298 20.228766,14.5779362 L20.4418936,3.30687235 L20.4430426,3.19944682 C20.4464894,3.00068086 20.5510426,2.82604255 20.7055745,2.72493616 C20.7940426,2.6669149 20.8985957,2.63244682 21.011766,2.63244682 C21.127234,2.63244682 21.236383,2.66863831 21.326,2.72895745 C21.4765106,2.83121278 21.577617,3.00355318 21.5804894,3.19829788 L21.8194681,14.5796596 L21.6040426,18.6980213 Z M23.5003617,19.0869362 L23.5003617,19.0823404 C23.494617,19.4155319 23.2234681,19.6872553 22.8931489,19.6872553 C22.5628298,19.6872553 22.2905319,19.4155319 22.2859362,19.0857872 L22.1635745,16.8648936 L22.036617,14.5819574 L22.2847872,2.23031914 L22.2859362,2.16827659 C22.288234,1.981 22.3755532,1.81268086 22.5105532,1.70180851 C22.6162553,1.61506384 22.748383,1.56278722 22.8931489,1.56278722 C23.0051702,1.56278722 23.1120213,1.59495745 23.2022128,1.65010639 C23.3774255,1.75638298 23.4974894,1.94825533 23.5009362,2.16712765 L23.7703617,14.5819574 L23.5003617,19.0869362 Z M39.8905106,19.6998936 C39.8905106,19.6998936 24.6291915,19.7021915 24.6142553,19.6998936 C24.2856596,19.6671489 24.0242766,19.404617 24.0196809,19.0674043 L24.0196809,1.57829788 C24.0242766,1.25659573 24.134,1.09172341 24.5493404,0.930297871 C25.6195745,0.516680851 26.8328511,0.271957447 28.0748511,0.271957447 C33.1554467,0.271957447 37.3191914,4.16742553 37.7586596,9.13312765 C38.4141278,8.85853192 39.1345106,8.70572341 39.8905106,8.70572341 C42.9334682,8.70572341 45.3996596,11.1724894 45.3996596,14.2160213 C45.3996596,17.2607021 42.9334682,19.6998936 39.8905106,19.6998936 Z" id="Shape"></path>
                </g>
            </g>
        </g>
    </g>
</svg>
