<?xml version="1.0" encoding="UTF-8"?>
<svg width="30px" height="24px" viewBox="0 0 30 24" version="1.1" xmlns="http://www.w3.org/2000/svg" xmlns:xlink="http://www.w3.org/1999/xlink">
    <!-- Generator: sketchtool 49.3 (51167) - http://www.bohemiancoding.com/sketch -->
    <title>D727AA27-3E40-4BB2-9EE2-83CCA28E7DB6@3x</title>
    <desc>Created with sketchtool.</desc>
    <defs></defs>
    <g id="Page-1" stroke="none" stroke-width="1" fill="none" fill-rule="evenodd">
        <g id="Icons" transform="translate(-426.000000, -1286.000000)" fill="#AAAAAA">
            <g id="soc" transform="translate(257.000000, 1286.000000)">
                <g id="ic_tw_e" transform="translate(169.000000, 0.000000)">
                    <path d="M29.7606918,2.83957765 C28.6653312,3.32144215 27.4900251,3.64823714 26.2551489,3.7941338 C27.5160414,3.04451852 28.4812231,1.85552353 28.9386729,0.443097126 C27.7559266,1.13728906 26.4503929,1.64136153 25.0593215,1.91461602 C23.9453847,0.734842161 22.3609171,0 20.6034773,0 C17.2318577,0 14.4981003,2.71405438 14.4981003,6.05953906 C14.4981003,6.53401701 14.5520295,6.99743924 14.6561921,7.44058465 C9.5829584,7.18760699 5.08436963,4.77451878 2.07352609,1.10774281 C1.5472181,2.0013719 1.24781143,3.04263567 1.24781143,4.15414418 C1.24781143,6.25709337 2.32644376,8.1126169 3.96299271,9.19820003 C2.96245801,9.16498464 2.0214448,8.89173015 1.19762666,8.43752904 L1.19762666,8.51322923 C1.19762666,11.4488322 3.30281001,13.8988532 6.09419239,14.4564662 C5.58276477,14.5930934 5.04347292,14.6687936 4.4855563,14.6687936 C4.09132374,14.6687936 3.71007504,14.6300262 3.33626653,14.5561606 C4.11359567,16.9655797 6.36758273,18.7176913 9.03812289,18.7657281 C6.94966779,20.390482 4.31632856,21.3560938 1.45613662,21.3560938 C0.96333377,21.3560938 0.477922478,21.3265476 0,21.2730071 C2.70214879,22.9956208 5.91013291,24 9.35800222,24 C20.5886942,24 26.7275763,14.7648189 26.7275763,6.75561385 L26.7071036,5.97094861 C27.9065782,5.12159061 28.9442652,4.05444974 29.7606918,2.83957765 L29.7606918,2.83957765 Z" id="twitter-copy"></path>
                </g>
            </g>
        </g>
    </g>
</svg>