<?xml version="1.0" encoding="UTF-8"?>
<svg width="32px" height="24px" viewBox="0 0 32 24" version="1.1" xmlns="http://www.w3.org/2000/svg" xmlns:xlink="http://www.w3.org/1999/xlink">
    <!-- Generator: sketchtool 49.3 (51167) - http://www.bohemiancoding.com/sketch -->
    <title>C7DFBE86-1042-4961-B2C6-2AC293851B92@3x</title>
    <desc>Created with sketchtool.</desc>
    <defs></defs>
    <g id="Page-1" stroke="none" stroke-width="1" fill="none" fill-rule="evenodd">
        <g id="Icons" transform="translate(-349.000000, -1286.000000)" fill="#FF2F2F" fill-rule="nonzero">
            <g id="soc" transform="translate(257.000000, 1286.000000)">
                <g id="ic_youtube_e" transform="translate(92.000000, 0.000000)">
                    <path d="M31.7879142,5.28623377 C31.7879142,2.48103896 29.7231969,0.224415584 27.1719298,0.224415584 C23.7161793,0.0623376623 20.1918129,0 16.5925926,0 C16.4054581,0 16.2183236,0 16.0311891,0 C15.8440546,0 15.6569201,0 15.4697856,0 C11.8768031,0 8.34619883,0.0623376623 4.89044834,0.224415584 C2.3454191,0.224415584 0.280701754,2.49350649 0.280701754,5.2987013 C0.124756335,7.51792208 0.0561403509,9.73714286 0.0623781676,11.9563636 C0.0561403509,14.1755844 0.124756335,16.3948052 0.274463938,18.6202597 C0.274463938,21.4254545 2.33918129,23.7007792 4.88421053,23.7007792 C8.51461988,23.8690909 12.2385965,23.9438961 16.0249513,23.9376623 C19.8175439,23.9501299 23.5290448,23.8753247 27.165692,23.7007792 C29.7169591,23.7007792 31.7816764,21.4254545 31.7816764,18.6202597 C31.931384,16.3948052 32,14.1755844 31.9937622,11.9501299 C32.0062378,9.73090909 31.9376218,7.51168831 31.7879142,5.28623377 Z M12.9746589,18.0716883 L12.9746589,5.82233766 L22.0194932,11.9438961 L12.9746589,18.0716883 Z" id="Shape"></path>
                </g>
            </g>
        </g>
    </g>
</svg>
